<svg width="31" height="43" viewBox="0 0 31 43" fill="none" xmlns="http://www.w3.org/2000/svg">
<path d="M9.50269 30.898C10.6309 32.3356 11.6577 33.8499 12.5757 35.43C13.2786 36.7985 13.8424 38.234 14.2587 39.715C14.6107 40.705 14.9287 41 15.6107 41C16.3547 41 16.6917 40.498 16.9527 39.72C17.3609 38.2703 17.9091 36.8636 18.5897 35.52C19.9275 33.2455 21.451 31.0855 23.1447 29.062C24.8526 27.0445 26.3632 24.8679 27.6557 22.562C28.6877 20.413 29.2193 18.058 29.2107 15.674C29.2248 13.4615 28.6985 11.279 27.6777 9.31604" stroke="#0788FF" stroke-width="3" stroke-linecap="round" stroke-linejoin="round"/>
<path d="M3.3407 22.0781C4.7977 25.4071 7.6077 28.3331 9.5087 30.9001L19.6077 18.9381C19.113 19.5175 18.4994 19.9837 17.8085 20.3048C17.1176 20.6259 16.3656 20.7945 15.6037 20.7991C14.9209 20.8022 14.2443 20.6702 13.6128 20.4106C12.9813 20.151 12.4074 19.7689 11.9243 19.2864C11.4411 18.804 11.0583 18.2306 10.7978 17.5995C10.5374 16.9683 10.4044 16.2918 10.4067 15.6091C10.4238 14.3916 10.8441 13.2142 11.6017 12.2611M19.7197 2.61505C21.4234 3.15063 23.0042 4.01847 24.3706 5.16846C25.737 6.31845 26.8621 7.72778 27.6807 9.31505L19.6107 18.9321C20.364 17.9716 20.7832 16.7915 20.8047 15.5711C20.7921 14.2 20.241 12.8889 19.2701 11.9207C18.2993 10.9526 16.9868 10.4049 15.6157 10.3961C14.8541 10.4064 14.1032 10.5772 13.4121 10.8974C12.721 11.2175 12.1051 11.6798 11.6047 12.2541M5.1907 6.86505C6.45766 5.3401 8.04544 4.11343 9.84086 3.2725C11.6363 2.43157 13.5951 1.9971 15.5777 2.00005C16.9791 1.99615 18.3729 2.20485 19.7117 2.61905L11.5977 12.2591" stroke="#0788FF" stroke-width="3" stroke-linecap="round" stroke-linejoin="round"/>
<path d="M3.34072 22.0781C2.43642 20.0569 1.97933 17.8642 2.00072 15.6501C1.98554 12.4355 3.11654 9.32087 5.19072 6.86505L11.6017 12.2601L3.34072 22.0781Z" stroke="#0788FF" stroke-width="3" stroke-linecap="round" stroke-linejoin="round"/>
</svg>
