<svg width="26" height="18" viewBox="0 0 26 18" fill="none" xmlns="http://www.w3.org/2000/svg">
<path d="M1.66667 17.5C1.26528 17.5 0.929056 17.364 0.658 17.092C0.386 16.8209 0.25 16.4847 0.25 16.0833C0.25 15.6819 0.386 15.3457 0.658 15.0747C0.929056 14.8027 1.26528 14.6667 1.66667 14.6667H24.3333C24.7347 14.6667 25.0709 14.8027 25.342 15.0747C25.614 15.3457 25.75 15.6819 25.75 16.0833C25.75 16.4847 25.614 16.8209 25.342 17.092C25.0709 17.364 24.7347 17.5 24.3333 17.5H1.66667ZM1.66667 10.4167C1.26528 10.4167 0.929056 10.2807 0.658 10.0087C0.386 9.73761 0.25 9.40139 0.25 9C0.25 8.59861 0.386 8.26192 0.658 7.98992C0.929056 7.71886 1.26528 7.58333 1.66667 7.58333H24.3333C24.7347 7.58333 25.0709 7.71886 25.342 7.98992C25.614 8.26192 25.75 8.59861 25.75 9C25.75 9.40139 25.614 9.73761 25.342 10.0087C25.0709 10.2807 24.7347 10.4167 24.3333 10.4167H1.66667ZM1.66667 3.33333C1.26528 3.33333 0.929056 3.19781 0.658 2.92675C0.386 2.65475 0.25 2.31806 0.25 1.91667C0.25 1.51528 0.386 1.17858 0.658 0.906584C0.929056 0.635528 1.26528 0.5 1.66667 0.5H24.3333C24.7347 0.5 25.0709 0.635528 25.342 0.906584C25.614 1.17858 25.75 1.51528 25.75 1.91667C25.75 2.31806 25.614 2.65475 25.342 2.92675C25.0709 3.19781 24.7347 3.33333 24.3333 3.33333H1.66667Z" fill="#0788FF"/>
</svg>
