<svg width="41" height="41" viewBox="0 0 41 41" fill="none" xmlns="http://www.w3.org/2000/svg">
<path d="M41 4.85348C39.4647 5.6904 37.8362 6.23975 36.1687 6.48327C37.9056 5.2023 39.2392 3.17384 39.8672 0.756953C38.2161 1.96261 36.4096 2.81207 34.5258 3.26863C32.9914 1.25712 30.8054 0 28.3859 0C23.7404 0 19.974 4.63434 19.974 10.3502C19.974 11.1616 20.0485 11.9514 20.1919 12.7092C13.201 12.2774 7.00299 8.1568 2.85414 1.89465C2.13024 3.42333 1.71543 5.20151 1.71543 7.09813C1.71543 10.6892 3.20056 13.8571 5.45748 15.7133C4.1217 15.6618 2.8153 15.2179 1.64737 14.4186C1.64689 14.4619 1.64689 14.5053 1.64689 14.5488C1.64689 19.5637 4.54636 23.7472 8.39427 24.698C7.1556 25.1125 5.85632 25.1732 4.59568 24.8754C5.66601 28.9875 8.77256 31.9798 12.4533 32.0636C9.57446 34.8395 5.9474 36.4943 2.0066 36.4943C1.32754 36.4943 0.658082 36.4453 0 36.3497C3.72251 39.2865 8.14395 41 12.8942 41C28.3664 41 36.827 25.2281 36.827 11.5506C36.827 11.1016 36.819 10.6553 36.8026 10.2115C38.4494 8.74661 39.8708 6.93223 41 4.85348Z" fill="#55ACEE"/>
</svg>
