<svg width="34" height="34" viewBox="0 0 34 34" fill="none" xmlns="http://www.w3.org/2000/svg">
<path d="M31.28 12.0983C29.9675 12.7001 28.5023 12.8857 27.0811 12.6304C25.66 12.3751 24.351 11.691 23.33 10.67C22.3091 9.64902 21.625 8.34005 21.3696 6.91892C21.1143 5.49778 21.3 4.03254 21.9017 2.72001C18.6588 1.59868 15.1314 1.61008 11.8958 2.75235C8.66015 3.89462 5.90743 6.10025 4.08722 9.00902C2.267 11.9178 1.48685 15.3578 1.87419 18.7672C2.26153 22.1766 3.79346 25.3539 6.21978 27.7803C8.64611 30.2066 11.8234 31.7385 15.2329 32.1259C18.6423 32.5132 22.0823 31.733 24.991 29.9128C27.8998 28.0926 30.1054 25.3399 31.2477 22.1043C32.39 18.8686 32.4014 15.3413 31.28 12.0983ZM16.7923 26.265C16.4841 26.265 16.1828 26.1736 15.9265 26.0024C15.6702 25.8312 15.4705 25.5878 15.3526 25.303C15.2346 25.0183 15.2037 24.7049 15.2639 24.4027C15.324 24.1004 15.4724 23.8227 15.6904 23.6048C15.9083 23.3868 16.186 23.2384 16.4882 23.1783C16.7905 23.1182 17.1039 23.149 17.3886 23.267C17.6734 23.3849 17.9167 23.5846 18.088 23.8409C18.2592 24.0972 18.3506 24.3985 18.3506 24.7067C18.3556 24.9145 18.3191 25.1212 18.243 25.3146C18.1669 25.5081 18.053 25.6844 17.9077 25.8331C17.7625 25.9818 17.589 26.1 17.3975 26.1807C17.2059 26.2613 17.0001 26.3029 16.7923 26.3028V26.265ZM18.0862 18.6528V20.2772C18.0842 20.6076 17.9559 20.9247 17.7276 21.1635C17.4993 21.4024 17.1883 21.5448 16.8584 21.5617H16.7545C16.5875 21.568 16.4209 21.5412 16.2643 21.4827C16.1078 21.4243 15.9643 21.3355 15.8423 21.2213C15.7202 21.1072 15.622 20.97 15.5532 20.8177C15.4845 20.6654 15.4466 20.5009 15.4417 20.3339V17.7272C15.4261 17.5758 15.4415 17.4228 15.4868 17.2775C15.5322 17.1322 15.6066 16.9976 15.7055 16.8819C15.8044 16.7663 15.9258 16.6719 16.0622 16.6045C16.1987 16.5371 16.3475 16.4982 16.4995 16.49C17.9823 16.3767 20.4473 15.8289 20.4473 13.4206C20.4473 11.6922 19.1156 10.5211 17.2078 10.5211C16.4846 10.5331 15.7725 10.7013 15.1205 11.0143C14.4684 11.3273 13.8917 11.7777 13.43 12.3345C13.2554 12.52 13.0296 12.6494 12.7812 12.7062C12.5329 12.7631 12.2732 12.7448 12.0353 12.6537C11.7974 12.5625 11.5919 12.4027 11.4451 12.1945C11.2982 11.9863 11.2166 11.7392 11.2106 11.4845C11.2162 11.1284 11.3621 10.789 11.6167 10.54C12.3181 9.72802 13.189 9.07971 14.1681 8.64076C15.1471 8.20181 16.2105 7.9829 17.2834 7.99946C20.7778 7.99946 23.2145 10.1717 23.2145 13.2883C23.2145 16.2067 21.3539 18.1333 18.0862 18.6906V18.6528Z" fill="#0788FF"/>
<path d="M28.3333 10.3889C30.9413 10.3889 33.0555 8.27468 33.0555 5.66667C33.0555 3.05865 30.9413 0.944443 28.3333 0.944443C25.7253 0.944443 23.6111 3.05865 23.6111 5.66667C23.6111 8.27468 25.7253 10.3889 28.3333 10.3889Z" fill="#0788FF"/>
</svg>
