<svg width="41" height="35" viewBox="0 0 41 35" fill="none" xmlns="http://www.w3.org/2000/svg">
<path d="M21.1458 14.5834H26.25V11.6667H23.3333V10.2084H20.4167V11.7396C19.5306 11.9195 18.743 12.4223 18.2068 13.1502C17.6705 13.8782 17.4239 14.7794 17.5148 15.6789C17.6057 16.5785 18.0275 17.4122 18.6985 18.0182C19.3695 18.6242 20.2417 18.9593 21.1458 18.9584H22.6042C22.7975 18.9584 22.983 19.0352 23.1198 19.1719C23.2565 19.3087 23.3333 19.4942 23.3333 19.6875C23.3333 19.8809 23.2565 20.0664 23.1198 20.2031C22.983 20.3399 22.7975 20.4167 22.6042 20.4167H17.5V23.3334H20.4167V24.7917H23.3333V23.2605C24.2194 23.0805 25.007 22.5778 25.5432 21.8499C26.0794 21.1219 26.3261 20.2207 26.2352 19.3211C26.1443 18.4216 25.7225 17.5879 25.0515 16.9819C24.3805 16.3759 23.5083 16.0408 22.6042 16.0417H21.1458C20.9524 16.0417 20.767 15.9649 20.6302 15.8281C20.4935 15.6914 20.4167 15.5059 20.4167 15.3125C20.4167 15.1192 20.4935 14.9337 20.6302 14.7969C20.767 14.6602 20.9524 14.5834 21.1458 14.5834Z" fill="black"/>
<path d="M39.375 13.125H36.4292C36.3872 11.9728 36.1093 10.8415 35.6127 9.801C35.116 8.76051 34.4111 7.833 33.5417 7.07583V1.45833C33.5417 1.1875 33.4662 0.922025 33.3239 0.691643C33.1815 0.461261 32.9778 0.27508 32.7355 0.153961C32.4933 0.032842 32.2221 -0.0184287 31.9524 0.00589337C31.6826 0.0302154 31.425 0.129169 31.2083 0.291667L25.7644 4.375H18.9583C10.9229 4.375 5.15812 9.10146 4.45083 16.0417H4.375C3.98823 16.0417 3.61729 15.888 3.3438 15.6145C3.07031 15.341 2.91667 14.9701 2.91667 14.5833V11.6667H0V14.5833C0.00115823 15.7433 0.462466 16.8554 1.28269 17.6756C2.10291 18.4959 3.21503 18.9572 4.375 18.9583H4.47708C4.68858 20.8706 5.31006 22.7147 6.29913 24.365C7.2882 26.0152 8.62159 27.4326 10.2083 28.5206V33.5417C10.2083 33.9284 10.362 34.2994 10.6355 34.5729C10.909 34.8464 11.2799 35 11.6667 35H17.5C17.8868 35 18.2577 34.8464 18.5312 34.5729C18.8047 34.2994 18.9583 33.9284 18.9583 33.5417V30.625H23.3333V33.5417C23.3333 33.9284 23.487 34.2994 23.7605 34.5729C24.034 34.8464 24.4049 35 24.7917 35H30.625C31.0118 35 31.3827 34.8464 31.6562 34.5729C31.9297 34.2994 32.0833 33.9284 32.0833 33.5417V28.6373C33.1368 28.1379 34.0578 27.3975 34.772 26.4761C35.4862 25.5546 35.9735 24.478 36.1944 23.3333H39.375C39.7618 23.3333 40.1327 23.1797 40.4062 22.9062C40.6797 22.6327 40.8333 22.2618 40.8333 21.875V14.5833C40.8333 14.1966 40.6797 13.8256 40.4062 13.5521C40.1327 13.2786 39.7618 13.125 39.375 13.125ZM37.9167 20.4167H33.7225C33.2777 24.4315 32.5208 25.499 29.1667 26.7094V32.0833H26.25V27.7083H16.0417V32.0833H13.125V26.8013C11.369 25.9658 9.8876 24.6471 8.85443 22.9997C7.82125 21.3523 7.27914 19.4445 7.29167 17.5C7.29167 10.449 13.1512 7.29167 18.9583 7.29167H26.7356L30.625 4.375V8.42333C34.1512 11.1358 33.4148 13.0696 33.5679 16.0417H37.9167V20.4167Z" fill="black"/>
</svg>
