<svg width="16" height="32" viewBox="0 0 16 32" fill="none" xmlns="http://www.w3.org/2000/svg">
<path d="M6.33155 32V28.1778C4.81996 27.8222 3.51544 27.1407 2.41797 26.1333C1.31936 25.1259 0.513369 23.7037 0 21.8667L3.16578 20.5333C3.59358 21.9556 4.22845 23.037 5.07037 23.7778C5.91116 24.5185 7.01604 24.8889 8.38503 24.8889C9.55437 24.8889 10.5457 24.6151 11.3591 24.0676C12.1714 23.5188 12.5775 22.6667 12.5775 21.5111C12.5775 20.4741 12.2638 19.6516 11.6364 19.0436C11.0089 18.4367 9.55437 17.7481 7.27273 16.9778C4.81996 16.1778 3.13726 15.2225 2.2246 14.112C1.31194 13.0003 0.855615 11.6444 0.855615 10.0444C0.855615 8.11852 1.45455 6.62222 2.65241 5.55556C3.85027 4.48889 5.07665 3.88148 6.33155 3.73333V0H9.75401V3.73333C11.18 3.97037 12.3568 4.51082 13.2843 5.35467C14.2106 6.1997 14.8877 7.22963 15.3155 8.44444L12.1497 9.86667C11.8075 8.91852 11.3226 8.20741 10.6952 7.73333C10.0677 7.25926 9.21212 7.02222 8.12834 7.02222C6.87344 7.02222 5.918 7.31141 5.26203 7.88978C4.60606 8.46696 4.27808 9.18518 4.27808 10.0444C4.27808 11.0222 4.70588 11.7926 5.5615 12.3556C6.41711 12.9185 7.90018 13.5111 10.0107 14.1333C11.9786 14.7259 13.4691 15.6664 14.4821 16.9547C15.494 18.2441 16 19.7333 16 21.4222C16 23.5259 15.4011 25.1259 14.2032 26.2222C13.0053 27.3185 11.5223 28 9.75401 28.2667V32H6.33155Z" fill="black"/>
</svg>
