<svg width="159" height="30" viewBox="0 0 159 30" fill="none" xmlns="http://www.w3.org/2000/svg">
<path d="M25.4383 0.384356L16.6663 21.4339H10.9435L6.62672 4.63438C6.365 3.60215 6.13757 3.22227 5.34116 2.78579C4.03937 2.07447 1.88961 1.40922 0 0.995375L0.127457 0.384356H9.341C10.5135 0.384356 11.5693 1.16965 11.8378 2.52938L14.1187 14.7111L19.7498 0.384356H25.4383ZM33.1747 0.384356L28.6985 21.4339H23.2841L27.7608 0.384356H33.1749H33.1747ZM47.8613 14.5613C47.8838 9.00682 40.2259 8.69854 40.2759 6.21682C40.2942 5.46232 41.0087 4.65913 42.5727 4.45379C43.3474 4.35296 45.4878 4.27266 47.9121 5.39625L48.8605 0.929824C47.558 0.455961 45.8817 0 43.7965 0C38.4444 0 34.6796 2.8595 34.6495 6.95736C34.6144 9.9885 37.3386 11.6778 39.3874 12.6874C41.4976 13.7183 42.2053 14.381 42.1956 15.3024C42.1804 16.7147 40.5101 17.34 38.9574 17.3631C36.2344 17.4066 34.656 16.6229 33.3969 16.0329L32.4141 20.6473C33.6808 21.2312 36.0154 21.7385 38.4334 21.7643C44.1232 21.7643 47.8445 18.9377 47.8613 14.5615V14.5613ZM61.9941 21.4339H67L62.6267 0.384356H58.0081C56.9665 0.384356 56.091 0.99248 55.7026 1.92731L47.5789 21.4339H53.2642L54.392 18.2895H61.338L61.9944 21.4339H61.9941ZM55.951 13.9761L58.8017 6.07124L60.4392 13.9761H55.9508H55.951ZM40.104 27.2279H37.9039V29.2874H40.3646V29.9065H37.1628V24.1933H40.2385V24.8125H37.9039V26.6177H40.1037V27.2284L40.104 27.2279ZM41.5013 23.8882H42.2425V29.9063H41.5013V23.8882ZM44.1127 27.9906C44.1294 28.9996 44.7618 29.4148 45.5113 29.4148C46.0426 29.4148 46.3711 29.3216 46.6412 29.2031L46.7757 29.7373C46.5145 29.8557 46.0596 29.9997 45.4103 29.9997C44.1551 29.9997 43.4053 29.1607 43.4053 27.9229C43.4053 26.6856 44.1294 25.7189 45.3179 25.7189C46.6579 25.7189 47.0034 26.8891 47.0034 27.6433C47.0034 27.7957 46.9947 27.9058 46.9777 27.9908H44.1127V27.9906ZM46.2868 27.4567C46.2954 26.9907 46.0931 26.2531 45.2588 26.2531C44.5003 26.2531 44.18 26.9396 44.1208 27.4567H46.2868ZM51.038 29.7623C50.8444 29.8557 50.4144 30 49.8668 30C48.6365 30 47.8359 29.1607 47.8359 27.9061C47.8359 26.6429 48.6951 25.7192 50.0268 25.7192C50.4649 25.7192 50.8525 25.829 51.0548 25.9395L50.8868 26.5074C50.7091 26.4142 50.4311 26.312 50.0268 26.312C49.0911 26.312 48.586 27.0157 48.586 27.8639C48.586 28.813 49.1927 29.3979 50.0016 29.3979C50.423 29.3979 50.7009 29.2963 50.9116 29.2031L51.038 29.7623ZM53.1182 24.8204V25.8037H54.1797V26.3713H53.1182V28.5839C53.1182 29.0931 53.2616 29.3808 53.6743 29.3808C53.8764 29.3808 53.9947 29.3642 54.1043 29.3298L54.1381 29.8984C53.9947 29.9489 53.7672 29.9997 53.4807 29.9997C53.1349 29.9997 52.8567 29.881 52.6801 29.6865C52.4778 29.4572 52.3935 29.0931 52.3935 28.6097V26.3713H51.7612V25.8037H52.3935V25.041L53.1184 24.8207L53.1182 24.8204ZM55.2153 27.0839C55.2153 26.6006 55.2064 26.1854 55.1816 25.8037H55.8306L55.8647 26.6171H55.8893C56.0751 26.0667 56.5297 25.7189 57.0267 25.7189C57.1028 25.7189 57.162 25.7276 57.2295 25.7358V26.4397C57.1536 26.4223 57.078 26.4223 56.9762 26.4223C56.4543 26.4223 56.0829 26.8122 55.9822 27.3722C55.9648 27.4872 55.9563 27.6033 55.9568 27.7197V29.9068H55.2153V27.0839ZM61.7873 27.821C61.7873 29.3384 60.7337 29.9997 59.7564 29.9997C58.6606 29.9997 57.8014 29.1857 57.8014 27.8892C57.8014 26.5242 58.703 25.7192 59.8239 25.7192C60.9951 25.7192 61.7873 26.5748 61.7873 27.8213V27.821ZM58.5596 27.8637C58.5596 28.7622 59.0652 29.4406 59.7899 29.4406C60.4981 29.4406 61.0286 28.7703 61.0286 27.8466C61.0286 27.1516 60.6832 26.2781 59.8067 26.2781C58.9391 26.2781 58.5596 27.0923 58.5596 27.8637ZM62.9237 26.9141C62.9237 26.4821 62.9148 26.1428 62.8897 25.8039H63.5471L63.5893 26.4821H63.606C63.8083 26.1004 64.2802 25.7192 64.9544 25.7192C65.5187 25.7192 66.3954 26.0583 66.3954 27.4648V29.9065H65.654V27.5414C65.654 26.8807 65.4095 26.3291 64.7102 26.3291C64.2297 26.3291 63.8502 26.6769 63.716 27.0921C63.6819 27.1855 63.6652 27.3124 63.6652 27.4398V29.9065H62.9237V26.9141Z" fill="#1A1F71"/>
<path d="M119.677 29.9337V27.9426C119.677 27.1792 119.104 26.6815 118.122 26.6815C117.631 26.6815 117.098 26.8143 116.73 27.2457C116.444 26.8806 116.034 26.6815 115.42 26.6815C115.011 26.6815 114.602 26.781 114.274 27.1461V26.7479H113.415V29.9337H114.274V28.1748C114.274 27.6108 114.643 27.3452 115.216 27.3452C115.789 27.3452 116.075 27.6439 116.075 28.1748V29.9337H116.935V28.1748C116.935 27.6108 117.344 27.3452 117.876 27.3452C118.449 27.3452 118.736 27.6439 118.736 28.1748V29.9337H119.677ZM132.406 26.7479H131.014V25.7855H130.155V26.7479H129.377V27.3783H130.155V28.8386C130.155 29.5687 130.523 30 131.506 30C131.874 30 132.283 29.9006 132.57 29.7678L132.324 29.1704C132.079 29.3031 131.792 29.3364 131.587 29.3364C131.178 29.3364 131.014 29.1373 131.014 28.8053V27.3783H132.406V26.7479ZM139.691 26.6814C139.2 26.6814 138.873 26.8806 138.668 27.1461V26.7479H137.809V29.9337H138.668V28.1417C138.668 27.6108 138.955 27.3121 139.487 27.3121C139.65 27.3121 139.855 27.3453 140.019 27.3784L140.264 26.7148C140.101 26.6815 139.855 26.6815 139.691 26.6815V26.6814ZM128.682 27.0133C128.272 26.781 127.699 26.6815 127.085 26.6815C126.103 26.6815 125.448 27.0797 125.448 27.7102C125.448 28.2413 125.939 28.5399 126.799 28.6395L127.208 28.6728C127.658 28.739 127.904 28.8386 127.904 29.0046C127.904 29.2368 127.576 29.4028 127.003 29.4028C126.43 29.4028 125.98 29.2368 125.694 29.0709L125.284 29.6018C125.735 29.8673 126.349 30 126.962 30C128.108 30 128.763 29.5687 128.763 28.9713C128.763 28.4071 128.231 28.1084 127.413 28.009L127.003 27.9757C126.635 27.9424 126.349 27.8762 126.349 27.6771C126.349 27.4448 126.635 27.3121 127.085 27.3121C127.576 27.3121 128.068 27.4779 128.313 27.5775L128.682 27.0133ZM151.52 26.6815C151.029 26.6815 150.701 26.8806 150.497 27.1461V26.7479H149.637V29.9337H150.497V28.1417C150.497 27.6108 150.783 27.3121 151.315 27.3121C151.479 27.3121 151.684 27.3453 151.847 27.3784L152.093 26.7148C151.929 26.6815 151.684 26.6815 151.52 26.6815ZM140.551 28.3408C140.551 29.3031 141.369 30 142.638 30C143.211 30 143.621 29.9006 144.03 29.6351L143.621 29.0709C143.293 29.27 142.966 29.3695 142.597 29.3695C141.902 29.3695 141.41 28.9713 141.41 28.3408C141.41 27.7435 141.902 27.3452 142.597 27.3121C142.966 27.3121 143.293 27.4115 143.621 27.6108L144.03 27.0466C143.621 26.781 143.211 26.6815 142.638 26.6815C141.369 26.6815 140.551 27.3784 140.551 28.3408ZM148.491 28.3408V26.7479H147.632V27.1461C147.345 26.8475 146.936 26.6815 146.404 26.6815C145.299 26.6815 144.439 27.3784 144.439 28.3408C144.439 29.3031 145.299 30 146.404 30C146.977 30 147.386 29.8342 147.632 29.5355V29.9337H148.491V28.3408ZM145.34 28.3408C145.34 27.7766 145.79 27.3121 146.527 27.3121C147.222 27.3121 147.714 27.7435 147.714 28.3408C147.714 28.905 147.222 29.3695 146.527 29.3695C145.79 29.3362 145.34 28.905 145.34 28.3408ZM135.066 26.6815C133.92 26.6815 133.102 27.3452 133.102 28.3408C133.102 29.3364 133.92 30 135.107 30C135.68 30 136.253 29.8673 136.704 29.5687L136.294 29.0709C135.967 29.27 135.558 29.4028 135.148 29.4028C134.616 29.4028 134.084 29.2037 133.961 28.6393H136.867V28.374C136.908 27.3452 136.172 26.6815 135.066 26.6815H135.066ZM135.066 27.2788C135.598 27.2788 135.967 27.5444 136.049 28.0422H134.002C134.084 27.6108 134.453 27.2788 135.066 27.2788ZM156.391 28.3408V25.4868H155.531V27.1461C155.244 26.8475 154.835 26.6815 154.303 26.6815C153.198 26.6815 152.339 27.3784 152.339 28.3408C152.339 29.3031 153.198 30 154.303 30C154.876 30 155.286 29.8342 155.531 29.5355V29.9337H156.391V28.3408ZM153.239 28.3408C153.239 27.7766 153.689 27.3121 154.426 27.3121C155.122 27.3121 155.613 27.7435 155.613 28.3408C155.613 28.905 155.122 29.3695 154.426 29.3695C153.689 29.3362 153.239 28.905 153.239 28.3408ZM124.507 28.3408V26.7479H123.647V27.1461C123.361 26.8475 122.951 26.6815 122.419 26.6815C121.314 26.6815 120.455 27.3784 120.455 28.3408C120.455 29.3031 121.314 30 122.419 30C122.992 30 123.402 29.8342 123.647 29.5355V29.9337H124.507V28.3408ZM121.314 28.3408C121.314 27.7766 121.764 27.3121 122.501 27.3121C123.197 27.3121 123.688 27.7435 123.688 28.3408C123.688 28.905 123.197 29.3695 122.501 29.3695C121.764 29.3362 121.314 28.905 121.314 28.3408Z" fill="black"/>
<path d="M128.395 2.55542H141.288V21.3386H128.395V2.55542Z" fill="#FF5F00"/>
<path d="M129.214 11.9469C129.214 8.1306 131.424 4.74557 134.821 2.55525C132.324 0.962357 129.173 0 125.735 0C117.59 0 111 5.34285 111 11.9469C111 18.5508 117.59 23.8938 125.735 23.8938C129.173 23.8938 132.324 22.9315 134.821 21.3384C131.424 19.1814 129.214 15.7632 129.214 11.9469Z" fill="#EB001B"/>
<path d="M158.683 11.9469C158.683 18.5508 152.093 23.8938 143.948 23.8938C140.51 23.8938 137.358 22.9315 134.862 21.3384C138.3 19.1483 140.469 15.7632 140.469 11.9469C140.469 8.1306 138.259 4.74557 134.862 2.55525C137.358 0.962357 140.51 0 143.948 0C152.093 0 158.683 5.3761 158.683 11.9469H158.683Z" fill="#F79E1B"/>
</svg>
