<svg width="60" height="11" viewBox="0 0 60 11" fill="none" xmlns="http://www.w3.org/2000/svg">
<path d="M2.295 11L3.27 6.93289L0 4.19737L4.32 3.83553L6 0L7.68 3.83553L12 4.19737L8.73 6.93289L9.705 11L6 8.84342L2.295 11Z" fill="#FAFF00"/>
<path d="M18.295 11L19.27 6.93289L16 4.19737L20.32 3.83553L22 0L23.68 3.83553L28 4.19737L24.73 6.93289L25.705 11L22 8.84342L18.295 11Z" fill="#FAFF00"/>
<path d="M34.295 11L35.27 6.93289L32 4.19737L36.32 3.83553L38 0L39.68 3.83553L44 4.19737L40.73 6.93289L41.705 11L38 8.84342L34.295 11Z" fill="#FAFF00"/>
<path d="M50.295 11L51.27 6.93289L48 4.19737L52.32 3.83553L54 0L55.68 3.83553L60 4.19737L56.73 6.93289L57.705 11L54 8.84342L50.295 11Z" fill="#FAFF00"/>
</svg>
